<svg width="102" height="100" viewBox="0 0 102 100" fill="none" xmlns="http://www.w3.org/2000/svg">
<path d="M13.6446 95.7145C10.4644 95.7145 7.46991 94.4722 5.21888 92.2264L3.48813 90.4956C1.2371 88.2445 0 85.2553 0 82.0698C0 78.8896 1.23705 75.8951 3.48813 73.644L6.72143 70.4107L25.2984 88.9879L22.0651 92.2212C19.814 94.4723 16.8248 95.7094 13.6394 95.7094L13.6446 95.7145ZM6.72129 76.4211L6.49299 76.6494C5.04359 78.0988 4.24726 80.0261 4.24726 82.0702C4.24726 84.1195 5.04365 86.0415 6.49299 87.491L8.22374 89.2217C11.1225 92.1153 16.1664 92.1153 19.0652 89.2217L19.2935 88.9934L6.72129 76.4211Z" fill="#F4F4F4"/>
<path d="M22.0127 91.7122L4.00391 73.7031L27.8584 36.9838C29.0795 35.2158 30.9536 34.122 33.0296 33.9362C35.1107 33.7557 37.1495 34.4884 38.6255 35.9644L59.7509 57.09C61.2268 58.5659 61.9648 60.6047 61.779 62.6807C61.5879 64.7618 60.4995 66.6361 58.7846 67.82L58.7315 67.8571L22.0127 91.7122ZM9.44053 73.1296L22.5808 86.2701L56.3898 64.3113C57.0535 63.8387 57.4729 63.1061 57.5472 62.299C57.6215 61.4761 57.3295 60.6744 56.7455 60.0904L35.6202 38.9648C35.0362 38.3807 34.2292 38.0993 33.4116 38.1631C32.5886 38.2374 31.8507 38.6674 31.3834 39.347L9.44053 73.1296Z" fill="#F4F4F4"/>
<path d="M42.5541 100C41.1259 100 39.6924 99.5595 38.4554 98.6676L23.377 87.773L25.8616 84.3327L40.9401 95.2272C42.0391 96.013 43.5309 95.9015 44.492 94.9405C45.0654 94.3724 45.3467 93.6079 45.2883 92.8009C45.2299 91.9939 44.8371 91.2772 44.184 90.794L32.0154 81.7577L34.5479 78.3491L46.7165 87.3854C48.3517 88.6013 49.3764 90.4595 49.5251 92.4876C49.6738 94.5158 48.9358 96.5067 47.497 97.9402C46.1378 99.2994 44.3539 100 42.5541 100Z" fill="#F4F4F4"/>
<path d="M65.422 29.933H53.8798C50.2271 29.933 47.2539 26.9598 47.2539 23.307V11.7646C47.2539 8.11186 50.2271 5.13867 53.8798 5.13867H65.422C69.0747 5.13867 72.0479 8.11186 72.0479 11.7646V23.307C72.0479 26.9598 69.0747 29.933 65.422 29.933ZM53.8798 9.38092C52.5684 9.38092 51.5013 10.4481 51.5013 11.7595V23.3018C51.5013 24.6132 52.5684 25.6804 53.8798 25.6804H65.422C66.7334 25.6804 67.8005 24.6132 67.8005 23.3018V11.7595C67.8005 10.4481 66.7334 9.38092 65.422 9.38092H53.8798Z" fill="#F4F4F4"/>
<path d="M85.9728 57.334H74.4306C70.7778 57.334 67.8047 54.3608 67.8047 50.708V39.1656C67.8047 35.5129 70.7778 32.5397 74.4306 32.5397H85.9728C89.6255 32.5397 92.5987 35.5129 92.5987 39.1656V50.708C92.5987 54.3608 89.6255 57.334 85.9728 57.334ZM74.4306 36.7819C73.1192 36.7819 72.052 37.8491 72.052 39.1605V50.7028C72.052 52.0142 73.1192 53.0814 74.4306 53.0814H85.9728C87.2841 53.0814 88.3513 52.0142 88.3513 50.7028V39.1605C88.3513 37.8491 87.2841 36.7819 85.9728 36.7819H74.4306Z" fill="#F4F4F4"/>
<path d="M94.5372 24.7943H82.995C79.3423 24.7943 76.3691 21.8211 76.3691 18.1683V6.62596C76.3691 2.97319 79.3423 0 82.995 0H94.5372C98.19 0 101.163 2.97319 101.163 6.62596V18.1683C101.163 21.8211 98.19 24.7943 94.5372 24.7943ZM82.995 4.24225C81.6837 4.24225 80.6165 5.30941 80.6165 6.6208V18.1632C80.6165 19.4745 81.6837 20.5417 82.995 20.5417H94.5372C95.8486 20.5417 96.9158 19.4745 96.9158 18.1632V6.6208C96.9158 5.30941 95.8486 4.24225 94.5372 4.24225H82.995Z" fill="#F4F4F4"/>
<path d="M59.6496 24.062C56.8622 24.062 54.5898 21.7896 54.5898 19.0022C54.5898 16.2148 56.8622 13.9424 59.6496 13.9424C62.4369 13.9424 64.7093 16.2148 64.7093 19.0022C64.7093 21.7949 62.4422 24.062 59.6496 24.062ZM59.6496 18.1899C59.2036 18.1899 58.8373 18.5563 58.8373 19.0023C58.8373 19.4482 59.2036 19.8146 59.6496 19.8146C60.0955 19.8146 60.4619 19.4482 60.4619 19.0023C60.4619 18.5563 60.1009 18.1899 59.6496 18.1899Z" fill="#F4F4F4"/>
<path d="M66.9906 12.392C66.9906 15.3281 62.584 15.3281 62.584 12.392C62.584 9.45592 66.9906 9.45592 66.9906 12.392Z" fill="#F4F4F4"/>
<path d="M79.9771 49.2593L77.7048 45.872L71.3443 48.6009L69.6719 44.6986L79.2709 40.5732L81.591 44.0349L89.6822 40.7804L91.2697 44.7198L79.9771 49.2593Z" fill="#F4F4F4"/>
<path d="M86.3496 7.89404V16.065L93.8674 12.391L86.3496 7.89404Z" fill="#F4F4F4"/>
</svg>
