<svg width="252" height="54" viewBox="0 0 252 54" fill="none" xmlns="http://www.w3.org/2000/svg">
<circle cx="26.0495" cy="15.0507" r="3.3317" fill="url(#paint0_linear_1_605)"/>
<circle cx="26.6101" cy="18.0083" r="10.3216" stroke="url(#paint1_linear_1_605)" stroke-width="5.2763"/>
<circle cx="14.7237" cy="33.3697" r="6.75844" stroke="url(#paint2_linear_1_605)" stroke-width="5.2763"/>
<path d="M51.5107 16.3242C50.9581 15.2842 49.3086 13.5162 47.1315 14.7642C44.9544 16.0122 42.1788 19.3841 41.0632 20.9141" stroke="url(#paint3_linear_1_605)" stroke-width="5.2763" stroke-linecap="round"/>
<path d="M45.1174 9.01816C43.9884 8.68289 41.5713 8.61916 40.9344 11.0464C40.2975 13.4737 40.7552 17.817 41.0637 19.6852" stroke="url(#paint4_linear_1_605)" stroke-width="5.2763" stroke-linecap="round"/>
<rect x="41.541" y="20.9473" width="7.61696" height="33.4419" rx="3.80848" transform="rotate(48.0964 41.541 20.9473)" stroke="url(#paint5_linear_1_605)" stroke-width="5.2763"/>
<path d="M77.3249 36.7268V15.4247H85.1605C89.4209 15.4247 92.4002 17.3315 92.4002 20.996C92.4002 22.7836 91.5362 24.601 89.9274 25.5246V25.5842C92.3704 26.329 93.2642 28.5039 93.2642 30.3809C93.2642 35.0286 89.3911 36.7268 85.1605 36.7268H77.3249ZM82.5387 23.6774H85.2201C86.531 23.6774 87.097 22.724 87.097 21.7111C87.097 20.7279 86.531 19.8937 85.1307 19.8937H82.5387V23.6774ZM82.5387 32.2578H85.667C87.1864 32.2578 87.9312 31.2151 87.9312 30.0234C87.9312 28.8316 87.2162 27.8485 85.6967 27.8485H82.5387V32.2578ZM96.9639 36.7268V15.4247H102.178V32.2578H110.877V36.7268H96.9639ZM112.146 25.9417C112.146 19.8341 116.854 15.0672 123.289 15.0672C129.724 15.0672 134.432 19.8341 134.432 25.9417C134.432 32.1983 129.724 37.0843 123.289 37.0843C116.854 37.0843 112.146 32.1983 112.146 25.9417ZM117.539 25.9417C117.539 29.5765 120.101 32.3174 123.289 32.3174C126.477 32.3174 129.039 29.5765 129.039 25.9417C129.039 22.4559 126.477 19.8341 123.289 19.8341C120.101 19.8341 117.539 22.4559 117.539 25.9417ZM136.528 25.9417C136.528 19.8341 141.235 15.0672 147.67 15.0672C154.106 15.0672 158.813 19.8341 158.813 25.9417C158.813 32.1983 154.106 37.0843 147.67 37.0843C141.235 37.0843 136.528 32.1983 136.528 25.9417ZM141.92 25.9417C141.92 29.5765 144.482 32.3174 147.67 32.3174C150.858 32.3174 153.42 29.5765 153.42 25.9417C153.42 22.4559 150.858 19.8341 147.67 19.8341C144.482 19.8341 141.92 22.4559 141.92 25.9417ZM161.714 36.7268L163.471 15.4247H169.132L172.231 24.4223C172.707 25.7927 173.303 27.9378 173.303 27.9378H173.363C173.363 27.9378 173.959 25.7927 174.435 24.4223L177.534 15.4247H183.194L184.922 36.7268H179.709L179.053 27.1334C178.934 25.5246 179.053 23.5583 179.053 23.5583H178.994C178.994 23.5583 178.279 25.7927 177.802 27.1334L175.567 33.3006H171.098L168.864 27.1334C168.387 25.7927 167.672 23.5583 167.672 23.5583H167.613C167.613 23.5583 167.732 25.5246 167.613 27.1334L166.957 36.7268H161.714ZM187.822 25.9417C187.822 19.8341 192.529 15.0672 198.965 15.0672C205.4 15.0672 210.107 19.8341 210.107 25.9417C210.107 32.1983 205.4 37.0843 198.965 37.0843C192.529 37.0843 187.822 32.1983 187.822 25.9417ZM193.214 25.9417C193.214 29.5765 195.777 32.3174 198.965 32.3174C202.152 32.3174 204.715 29.5765 204.715 25.9417C204.715 22.4559 202.152 19.8341 198.965 19.8341C195.777 19.8341 193.214 22.4559 193.214 25.9417ZM213.663 36.7268V15.4247H221.082C223.257 15.4247 224.299 15.5737 225.223 15.9312C227.636 16.8548 229.156 19.0297 229.156 22.1282C229.156 24.3925 228.083 26.8653 225.968 27.9378V27.9974C225.968 27.9974 226.266 28.3847 226.772 29.2785L230.913 36.7268H225.104L221.32 29.5467H218.877V36.7268H213.663ZM218.877 25.0777H221.141C222.81 25.0777 223.852 24.1541 223.852 22.4559C223.852 20.8471 223.257 19.8937 220.635 19.8937H218.877V25.0777ZM246.036 36.7268L244.725 32.2578H238.081L236.8 36.7268H231.437L238.677 15.4247H244.159L251.398 36.7268H246.036ZM241.447 20.281H241.388C241.388 20.281 240.911 22.6049 240.524 23.9456L239.302 28.0868H243.503L242.311 23.9456C241.924 22.6049 241.447 20.281 241.447 20.281Z" fill="url(#paint6_linear_1_605)"/>
<defs>
<linearGradient id="paint0_linear_1_605" x1="26.0495" y1="11.719" x2="26.0495" y2="18.3824" gradientUnits="userSpaceOnUse">
<stop stop-color="white"/>
<stop offset="1" stop-color="#999999"/>
</linearGradient>
<linearGradient id="paint1_linear_1_605" x1="26.6101" y1="5.04858" x2="26.6101" y2="30.9681" gradientUnits="userSpaceOnUse">
<stop stop-color="white"/>
<stop offset="1" stop-color="#999999"/>
</linearGradient>
<linearGradient id="paint2_linear_1_605" x1="14.7237" y1="23.9731" x2="14.7237" y2="42.7663" gradientUnits="userSpaceOnUse">
<stop stop-color="white"/>
<stop offset="1" stop-color="#999999"/>
</linearGradient>
<linearGradient id="paint3_linear_1_605" x1="46.287" y1="14.335" x2="46.287" y2="20.9141" gradientUnits="userSpaceOnUse">
<stop stop-color="white"/>
<stop offset="1" stop-color="#999999"/>
</linearGradient>
<linearGradient id="paint4_linear_1_605" x1="40.0362" y1="11.3475" x2="44.7267" y2="15.961" gradientUnits="userSpaceOnUse">
<stop stop-color="white"/>
<stop offset="1" stop-color="#999999"/>
</linearGradient>
<linearGradient id="paint5_linear_1_605" x1="45.3495" y1="20.9473" x2="45.3495" y2="54.3892" gradientUnits="userSpaceOnUse">
<stop stop-color="white"/>
<stop offset="1" stop-color="#999999"/>
</linearGradient>
<linearGradient id="paint6_linear_1_605" x1="163.271" y1="8.72681" x2="163.271" y2="44.7268" gradientUnits="userSpaceOnUse">
<stop stop-color="white"/>
<stop offset="1" stop-color="#999999"/>
</linearGradient>
</defs>
</svg>
