<svg width="61" height="64" viewBox="0 0 61 64" fill="none" xmlns="http://www.w3.org/2000/svg">
<path fill-rule="evenodd" clip-rule="evenodd" d="M47.0772 16.0095C49.6486 19.9551 51.1429 24.6608 51.1429 29.715C51.1429 35.8293 48.9515 41.4405 45.3173 45.8005L59.6145 60.1007C60.5088 60.9921 60.5088 62.4378 59.6145 63.3293C58.723 64.2236 57.2745 64.2236 56.383 63.3293L42.0858 49.035C37.7258 52.6693 32.1143 54.8578 26.0003 54.8578C12.1229 54.8578 0.857422 43.5923 0.857422 29.715C0.857422 15.8376 12.1229 4.57212 26.0003 4.57212C33.1402 4.57212 39.5946 7.55495 44.1719 12.3465L50.1261 5.10079L48.7604 5.23508C47.5061 5.35793 46.3861 4.44082 46.2604 3.18649C46.1375 1.92932 47.0546 0.809353 48.3118 0.686473L55.1346 0.00933134C55.2289 0.0036167 55.3232 -0.00209703 55.4146 0.000759923C55.9204 0.00361688 56.4261 0.172192 56.8489 0.520761C57.4518 1.01505 57.7346 1.75505 57.6746 2.47792L58.3089 8.88361C58.4346 10.1408 57.5146 11.2608 56.2603 11.3865C55.0031 11.5065 53.8832 10.5922 53.7603 9.33505L53.6317 8.03509L47.0772 16.0095ZM41.2458 15.9095C37.4772 11.7552 32.04 9.14375 25.9999 9.14375C14.643 9.14375 5.42848 18.3612 5.42848 29.7152C5.42848 41.0691 14.643 50.2866 25.9999 50.2866C37.3538 50.2866 46.5713 41.0691 46.5713 29.7152C46.5713 26.1037 45.6371 22.7066 43.9999 19.7553L34.6201 31.1641C33.8458 32.1099 32.4629 32.2784 31.4857 31.5441L24.1144 26.0155L16.3576 35.7128C15.5662 36.6986 14.129 36.8585 13.1434 36.0728C12.1576 35.2814 11.9977 33.8442 12.7862 32.8586L21.9291 21.43C22.7005 20.4671 24.0976 20.2871 25.0862 21.03L32.4773 26.5728L41.2458 15.9095Z" fill="#F4F4F4"/>
</svg>
