<svg width="134" height="90" viewBox="0 0 134 90" fill="none" xmlns="http://www.w3.org/2000/svg">
<path d="M48.852 32.357C48.5517 31.8904 48.0784 31.562 47.5361 31.4439C46.9939 31.3259 46.4269 31.4279 45.9598 31.7275L31.3088 41.1462C31.014 41.3358 30.7715 41.5963 30.6036 41.904C30.4357 42.2117 30.3477 42.5566 30.3477 42.9071C30.3477 43.2576 30.4357 43.6025 30.6036 43.9101C30.7715 44.2178 31.014 44.4784 31.3088 44.668L45.9598 54.0867C46.4268 54.3869 46.994 54.4893 47.5365 54.3713C48.079 54.2533 48.5524 53.9247 48.8525 53.4577C49.1527 52.9906 49.2551 52.4235 49.1371 51.881C49.0191 51.3385 48.6905 50.8651 48.2235 50.5649L36.3114 42.9071L48.2235 35.2493C48.4547 35.1007 48.6544 34.908 48.8111 34.6822C48.9678 34.4564 49.0785 34.2019 49.1369 33.9333C49.1952 33.6648 49.2001 33.3873 49.1512 33.1169C49.1024 32.8464 49.0007 32.5882 48.852 32.357Z" fill="#F4F4F4"/>
<path d="M85.8995 41.1464L71.2485 31.7279C70.7815 31.4277 70.2144 31.3254 69.6719 31.4433C69.1294 31.5613 68.656 31.8899 68.3558 32.3569C68.0557 32.8239 67.9533 33.3911 68.0712 33.9335C68.1892 34.476 68.5178 34.9494 68.9848 35.2496L80.897 42.9073L68.9849 50.5649C68.7536 50.7135 68.5539 50.9063 68.3972 51.1321C68.2404 51.3579 68.1297 51.6124 68.0713 51.881C68.0128 52.1496 68.0079 52.4271 68.0567 52.6976C68.1056 52.9681 68.2072 53.2264 68.3558 53.4576C68.5045 53.6888 68.6972 53.8885 68.923 54.0453C69.1488 54.202 69.4033 54.3128 69.6719 54.3712C69.9405 54.4296 70.218 54.4345 70.4885 54.3857C70.759 54.3369 71.0173 54.2352 71.2485 54.0866L85.8995 44.6681C86.1943 44.4785 86.4368 44.218 86.6048 43.9103C86.7727 43.6027 86.8607 43.2578 86.8607 42.9073C86.8607 42.5568 86.7727 42.2119 86.6048 41.9042C86.4368 41.5966 86.1943 41.336 85.8995 41.1464Z" fill="#F4F4F4"/>
<path d="M54.4165 56.512C54.8462 56.5118 55.2654 56.3793 55.6172 56.1327C55.969 55.8861 56.2364 55.5372 56.3832 55.1334L64.7547 32.112C64.85 31.8534 64.8933 31.5785 64.8821 31.3032C64.8709 31.0278 64.8055 30.7574 64.6895 30.5074C64.5735 30.2574 64.4093 30.0328 64.2063 29.8464C64.0033 29.6601 63.7654 29.5157 63.5064 29.4215C63.2475 29.3273 62.9724 29.2851 62.6971 29.2975C62.4218 29.3099 62.1517 29.3765 61.9022 29.4936C61.6527 29.6106 61.4288 29.7758 61.2433 29.9797C61.0578 30.1835 60.9144 30.4219 60.8214 30.6813L52.4499 53.7028C52.3351 54.019 52.2982 54.3582 52.3422 54.6917C52.3863 55.0252 52.51 55.3431 52.7029 55.6187C52.8958 55.8943 53.1523 56.1193 53.4506 56.2748C53.7488 56.4303 54.0802 56.5117 54.4165 56.512Z" fill="#F4F4F4"/>
<path d="M130 42.8085C129.858 42.4319 129.704 42.0601 129.537 41.693C130.146 40.7117 130.405 39.5534 130.273 38.4062C130.141 37.259 129.624 36.1902 128.808 35.3733L126.835 33.4001C126.018 32.5839 124.949 32.0678 123.802 31.9354C122.655 31.803 121.497 32.0623 120.515 32.671C120.149 32.5046 119.777 32.3505 119.4 32.2086C119.136 31.0851 118.5 30.0836 117.596 29.3663C116.691 28.6491 115.571 28.258 114.417 28.2565H111.626C110.472 28.258 109.352 28.649 108.448 29.3663C107.544 30.0836 106.908 31.0851 106.644 32.2086C106.267 32.3504 105.895 32.5046 105.528 32.671C104.547 32.0623 103.389 31.8031 102.242 31.9354C101.094 32.0677 100.026 32.5838 99.2088 33.4L97.2353 35.3734C96.4191 36.1904 95.903 37.2592 95.7706 38.4064C95.6383 39.5535 95.8975 40.7118 96.5063 41.6931C96.34 42.0597 96.1858 42.4315 96.0439 42.8085C94.9203 43.0728 93.9188 43.7085 93.2016 44.6128C92.4843 45.5171 92.0933 46.637 92.0918 47.7912V50.5818C92.0933 51.7361 92.4843 52.856 93.2016 53.7603C93.9188 54.6646 94.9203 55.3003 96.0439 55.5645C96.1857 55.9413 96.3398 56.3131 96.5063 56.68C95.8976 57.6612 95.6383 58.8195 95.7707 59.9666C95.903 61.1138 96.4192 62.1826 97.2353 62.9995L99.2087 64.9729C100.026 65.7891 101.094 66.3053 102.242 66.4376C103.389 66.57 104.547 66.3107 105.528 65.702C105.895 65.8683 106.267 66.0225 106.644 66.1644C106.908 67.288 107.544 68.2895 108.448 69.0067C109.352 69.724 110.472 70.115 111.627 70.1165H114.417C115.571 70.115 116.691 69.7239 117.596 69.0067C118.5 68.2894 119.136 67.2879 119.4 66.1644C119.777 66.0226 120.148 65.8685 120.515 65.702C121.497 66.3107 122.655 66.57 123.802 66.4376C124.949 66.3053 126.018 65.7892 126.835 64.973L128.808 62.9996C129.624 62.1827 130.141 61.1139 130.273 59.9667C130.405 58.8195 130.146 57.6612 129.537 56.6799C129.704 56.3134 129.858 55.9415 130 55.5645C131.123 55.3003 132.125 54.6645 132.842 53.7603C133.559 52.856 133.95 51.736 133.952 50.5818V47.7912C133.95 46.637 133.559 45.5171 132.842 44.6128C132.125 43.7085 131.123 43.0728 130 42.8085ZM129.766 50.5818C129.766 50.704 129.742 50.825 129.695 50.9378C129.648 51.0507 129.58 51.1532 129.493 51.2396C129.407 51.326 129.304 51.3945 129.192 51.4413C129.079 51.488 128.958 51.5121 128.836 51.5121H126.779C126.43 53.587 125.614 55.5555 124.393 57.2685L125.848 58.7242C125.935 58.8105 126.003 58.9131 126.05 59.0259C126.097 59.1388 126.121 59.2598 126.121 59.3819C126.121 59.5041 126.097 59.6251 126.05 59.7379C126.003 59.8508 125.935 59.9533 125.848 60.0397L123.875 62.013C123.7 62.1874 123.464 62.2854 123.217 62.2854C122.97 62.2854 122.734 62.1874 122.559 62.0129L121.104 60.5573C119.391 61.7789 117.422 62.5948 115.347 62.9433V65.0003C115.347 65.1224 115.323 65.2434 115.277 65.3563C115.23 65.4691 115.161 65.5717 115.075 65.6581C114.989 65.7444 114.886 65.813 114.773 65.8597C114.66 65.9065 114.539 65.9305 114.417 65.9305H111.626C111.504 65.9305 111.383 65.9065 111.27 65.8597C111.158 65.813 111.055 65.7445 110.969 65.6581C110.882 65.5717 110.814 65.4691 110.767 65.3563C110.72 65.2434 110.696 65.1224 110.696 65.0003V62.9433C108.621 62.5948 106.653 61.7788 104.94 60.5573L103.484 62.0129C103.31 62.1873 103.073 62.2854 102.826 62.2854C102.58 62.2854 102.343 62.1874 102.169 62.013L100.195 60.0396C100.021 59.8652 99.9229 59.6286 99.9229 59.3819C99.9229 59.1352 100.021 58.8986 100.195 58.7241L101.651 57.2685C100.429 55.5554 99.6136 53.587 99.2651 51.512H97.2081C97.0859 51.5121 96.9649 51.488 96.8521 51.4413C96.7392 51.3945 96.6367 51.326 96.5503 51.2396C96.4639 51.1532 96.3954 51.0507 96.3486 50.9378C96.3019 50.825 96.2778 50.704 96.2778 50.5818V47.7912C96.2778 47.6691 96.3019 47.5481 96.3486 47.4352C96.3953 47.3223 96.4639 47.2198 96.5502 47.1334C96.6366 47.047 96.7392 46.9785 96.852 46.9318C96.9649 46.885 97.0859 46.861 97.2081 46.861H99.2651C99.6136 44.786 100.429 42.8176 101.651 41.1045L100.195 39.6489C100.021 39.4744 99.9229 39.2378 99.9229 38.9911C99.9229 38.7444 100.021 38.5078 100.195 38.3334L102.169 36.3601C102.343 36.1856 102.58 36.0877 102.826 36.0877C103.073 36.0877 103.31 36.1856 103.484 36.3601L104.94 37.8157C106.653 36.5941 108.621 35.7783 110.696 35.4298V33.3728C110.696 33.2506 110.72 33.1297 110.767 33.0168C110.814 32.9039 110.882 32.8014 110.969 32.715C111.055 32.6286 111.158 32.5601 111.27 32.5133C111.383 32.4666 111.504 32.4425 111.626 32.4425H114.417C114.539 32.4425 114.66 32.4666 114.773 32.5133C114.886 32.5601 114.989 32.6286 115.075 32.715C115.161 32.8014 115.23 32.9039 115.277 33.0168C115.323 33.1297 115.347 33.2506 115.347 33.3728V35.4298C117.422 35.7783 119.391 36.5942 121.104 37.8157L122.559 36.3601C122.734 36.1857 122.97 36.0877 123.217 36.0877C123.464 36.0877 123.7 36.1857 123.875 36.3601L125.848 38.3334C125.935 38.4198 126.003 38.5223 126.05 38.6352C126.097 38.748 126.121 38.869 126.121 38.9911C126.121 39.1133 126.097 39.2343 126.05 39.3471C126.003 39.46 125.935 39.5625 125.848 39.6489L124.393 41.1045C125.614 42.8176 126.43 44.7861 126.779 46.861H128.836C128.958 46.861 129.079 46.885 129.192 46.9318C129.304 46.9785 129.407 47.0471 129.493 47.1334C129.58 47.2198 129.648 47.3224 129.695 47.4352C129.742 47.5481 129.766 47.6691 129.766 47.7912V50.5818Z" fill="#F4F4F4"/>
<path d="M113.023 41.8608C111.574 41.8608 110.158 42.2905 108.953 43.0954C107.748 43.9003 106.809 45.0444 106.255 46.383C105.7 47.7216 105.555 49.1945 105.838 50.6155C106.121 52.0365 106.818 53.3418 107.843 54.3662C108.867 55.3907 110.173 56.0884 111.594 56.3711C113.015 56.6537 114.488 56.5087 115.826 55.9542C117.165 55.3998 118.309 54.4608 119.114 53.2562C119.919 52.0515 120.348 50.6352 120.348 49.1863C120.348 47.2435 119.576 45.3802 118.203 44.0064C116.829 42.6326 114.966 41.8608 113.023 41.8608ZM113.023 52.3258C112.402 52.3258 111.795 52.1417 111.279 51.7967C110.762 51.4518 110.36 50.9614 110.122 50.3878C109.885 49.8141 109.822 49.1829 109.944 48.5739C110.065 47.9648 110.364 47.4054 110.803 46.9664C111.242 46.5273 111.801 46.2283 112.41 46.1072C113.019 45.986 113.651 46.0482 114.224 46.2858C114.798 46.5234 115.288 46.9258 115.633 47.4421C115.978 47.9584 116.162 48.5654 116.162 49.1863C116.161 50.0187 115.83 50.8167 115.242 51.4052C114.653 51.9938 113.855 52.3249 113.023 52.3258Z" fill="#F4F4F4"/>
<path d="M109.883 78.4885C111.202 78.4865 112.488 78.0694 113.557 77.2962C114.626 76.5231 115.425 75.4331 115.84 74.1807C115.37 74.2578 114.894 74.2985 114.418 74.3025H111.627C111.226 74.3013 110.825 74.2742 110.428 74.2214C110.251 74.2727 110.067 74.2999 109.883 74.3025H17.7907C17.2358 74.3019 16.7038 74.0812 16.3114 73.6888C15.9191 73.2964 15.6984 72.7644 15.6977 72.2095V45.8421C14.3157 46.115 12.8937 46.115 11.5117 45.8421V72.2095C11.5135 73.8742 12.1757 75.4703 13.3528 76.6474C14.5299 77.8246 16.126 78.4867 17.7907 78.4885H55.4647V85.814H49.1857C48.6306 85.814 48.0982 86.0345 47.7057 86.427C47.3132 86.8195 47.0927 87.3519 47.0927 87.907C47.0927 88.4621 47.3132 88.9945 47.7057 89.387C48.0982 89.7795 48.6306 90 49.1857 90H78.4877C79.0428 90 79.5752 89.7795 79.9677 89.387C80.3602 88.9945 80.5807 88.4621 80.5807 87.907C80.5807 87.3519 80.3602 86.8195 79.9677 86.427C79.5752 86.0345 79.0428 85.814 78.4877 85.814H72.2087V78.4885L109.883 78.4885ZM68.0227 85.814H59.6507V78.4885H68.0227V85.814Z" fill="#F4F4F4"/>
<path d="M114.417 24.0707C115.003 24.0755 115.587 24.1359 116.162 24.251V13.6057C116.16 11.9409 115.498 10.3449 114.321 9.16774C113.143 7.9906 111.547 7.32848 109.883 7.32666H30.4414C30.8909 8.68399 31.1824 10.0886 31.3103 11.5127H109.883C110.438 11.5133 110.97 11.734 111.362 12.1264C111.754 12.5188 111.975 13.0508 111.976 13.6057V24.0707H114.417Z" fill="#F4F4F4"/>
<path d="M6.39553 25.1118V34.4579C6.37239 36.3949 7.11829 38.2619 8.46968 39.6498C9.82107 41.0376 11.6677 41.8328 13.6045 41.8612C15.5414 41.8328 17.388 41.0376 18.7394 39.6497C20.0908 38.2619 20.8367 36.3949 20.8135 34.4579V25.1118C22.9589 23.6972 24.6811 21.7279 25.7972 19.4131C26.9133 17.0983 27.3816 14.5244 27.1523 11.9648C26.923 9.40528 26.0048 6.9556 24.4951 4.87599C22.9854 2.79639 20.9406 1.16451 18.5779 0.153696C18.2601 0.0246973 17.9155 -0.024229 17.5744 0.0112209C17.2332 0.0466709 16.906 0.165412 16.6215 0.356997C16.337 0.548582 16.104 0.807142 15.9428 1.10993C15.7817 1.41272 15.6975 1.75047 15.6975 2.09346V12.5423L11.5115 12.4963V2.09346C11.5116 1.75047 11.4273 1.41272 11.2662 1.10993C11.1051 0.807136 10.872 0.548575 10.5876 0.356989C10.3031 0.165402 9.97584 0.0466614 9.63469 0.0112109C9.29354 -0.0242395 8.9489 0.024687 8.63109 0.153686C6.26843 1.1645 4.22365 2.79638 2.71395 4.87598C1.20425 6.95559 0.286006 9.40527 0.0567392 11.9648C-0.172528 14.5244 0.295747 17.0983 1.41183 19.4131C2.52791 21.7279 4.25012 23.6972 6.39553 25.1118ZM7.32552 5.86666V12.4963C7.32079 13.6122 7.75883 14.6844 8.54356 15.4778C9.32829 16.2712 10.3956 16.7209 11.5115 16.7284H15.6975C16.8134 16.7209 17.8808 16.2712 18.6655 15.4778C19.4502 14.6844 19.8883 13.6122 19.8835 12.4963V5.86666C20.8847 6.80919 21.6804 7.94841 22.2206 9.21287C22.7609 10.4773 23.034 11.8398 23.023 13.2148C23.0443 15.0289 22.5641 16.8136 21.6354 18.3721C20.7067 19.9306 19.3655 21.2023 17.7599 22.0469C17.4187 22.2233 17.1327 22.4901 16.9329 22.8181C16.7332 23.1462 16.6276 23.5229 16.6275 23.9069V34.4579C16.6516 35.285 16.347 36.0878 15.7804 36.6908C15.2138 37.2938 14.4315 37.6477 13.6045 37.6751C12.7776 37.6477 11.9952 37.2938 11.4287 36.6908C10.8621 36.0878 10.5575 35.285 10.5815 34.4579V23.9069C10.5815 23.5228 10.4758 23.1462 10.2761 22.8181C10.0764 22.4901 9.79036 22.2233 9.44922 22.0468C7.84356 21.2023 6.50239 19.9306 5.57366 18.3721C4.64492 16.8136 4.16472 15.0289 4.18602 13.2148C4.17501 11.8398 4.44819 10.4773 4.98843 9.21286C5.52868 7.9484 6.32434 6.80919 7.32552 5.86666Z" fill="#F4F4F4"/>
</svg>
