<svg width="114" height="120" viewBox="0 0 114 120" fill="none" xmlns="http://www.w3.org/2000/svg">
<path d="M7.64093 37.5484H72.2333L68.7177 41.9077H7.68623C7.63943 41.9047 7.5924 41.9047 7.5456 41.9077C7.4988 41.9047 7.45178 41.9047 7.40498 41.9077C6.82532 42.0207 6.36724 42.5828 6.37374 43.1733V95.4388C6.37824 96.1159 7.00939 96.7242 7.68623 96.7043H92.8569C93.5182 96.7043 94.1176 96.1002 94.1225 95.4388V43.1733C94.1105 42.7903 93.9149 42.4171 93.6069 42.189L95.8569 38.439C97.1682 39.3591 98.0131 40.9158 98.0131 42.6577V95.9537C98.0131 98.7987 95.7488 101.063 92.9039 101.063H7.63868C4.7938 101.063 2.52943 98.7987 2.52943 95.9537V42.6577C2.52943 39.8128 4.7938 37.5484 7.63868 37.5484H7.64093Z" fill="#F4F4F4"/>
<path fill-rule="evenodd" clip-rule="evenodd" d="M19.5932 63.4233C19.5932 60.9007 21.6647 58.7828 24.1869 58.7828C26.7091 58.7828 28.7806 60.9007 28.7806 63.4233C28.7806 65.946 26.7091 67.9702 24.1869 67.9702C21.6647 67.9702 19.5932 65.946 19.5932 63.4233ZM26.2494 63.4233C26.2494 62.2788 25.3311 61.3608 24.1869 61.3608C23.0426 61.3608 22.1712 62.2788 22.1712 63.4233C22.1712 64.5678 23.0427 65.439 24.1869 65.439C25.3311 65.439 26.2494 64.5678 26.2494 63.4233ZM20.6709 76.8764C25.3996 73.5575 31.18 70.117 36.1868 69.8452C39.7653 69.651 43.9359 71.5984 47.3894 73.501C50.8428 75.4036 53.4831 77.3447 53.4831 77.3447C54.1347 77.6737 54.3722 78.6231 53.9519 79.2197C53.5316 79.8164 52.559 79.9101 52.0301 79.4072C52.0301 79.4072 49.4237 77.569 46.1239 75.751C42.8242 73.9331 38.7537 72.244 36.3272 72.376C32.4724 72.5854 26.7088 75.7673 22.1241 78.9854C17.5394 82.2035 14.0617 85.3603 14.0617 85.3603C13.5708 85.8148 12.6876 85.8046 12.2335 85.3138C11.7794 84.8229 11.8363 83.9397 12.3273 83.4856C12.3273 83.4856 15.9427 80.1953 20.6709 76.8764Z" fill="#F4F4F4"/>
<path fill-rule="evenodd" clip-rule="evenodd" d="M104.906 0.00149931C104.632 -0.00300065 104.378 -1.72332e-05 104.109 0.0482823C103.064 0.23821 102.106 0.872495 101.437 1.78264L101.39 1.73577L101.343 1.82952L74.297 35.0167H7.64063C3.42717 35.0167 0 38.4437 0 42.6573V95.9534C0 100.167 3.42702 103.641 7.64063 103.641H38.4833L36.5146 110.531H35.4365C33.766 110.531 32.3897 111.908 32.3897 113.578V116.906C32.3897 118.577 33.766 120 35.4365 120H65.3432C67.0137 120 68.39 118.577 68.39 116.906V113.578C68.39 111.908 67.0137 110.531 65.3432 110.531H64.2651L62.2494 103.641H92.9061C97.1196 103.641 100.547 100.167 100.547 95.9534V42.6573C100.547 40.0015 99.1868 37.652 97.125 36.2824L112.921 9.84516L112.968 9.75141C114.232 7.83397 113.741 5.20527 111.843 3.89218L107.296 0.751492C106.573 0.251427 105.728 0.0154042 104.906 0.00149931ZM105.843 2.86085C105.442 2.58342 105.008 2.45428 104.578 2.53273C104.147 2.61117 103.734 2.87899 103.453 3.28208C103.439 3.31396 103.423 3.34523 103.406 3.37583L70.2656 44.0629L83.9061 53.5316L110.765 8.43901C110.78 8.42301 110.796 8.40742 110.812 8.39223C111.372 7.58689 111.191 6.55612 110.39 6.00153L105.843 2.86085ZM72.2333 37.5484H7.64093H7.63868C4.7938 37.5484 2.52943 39.8128 2.52943 42.6577V95.9537C2.52943 98.7987 4.7938 101.063 7.63868 101.063H92.9039C95.7488 101.063 98.0131 98.7987 98.0131 95.9537V42.6577C98.0131 40.9158 97.1682 39.3591 95.8569 38.439L93.6069 42.189C93.9149 42.4171 94.1105 42.7903 94.1225 43.1733V95.4388C94.1176 96.1002 93.5182 96.7043 92.8569 96.7043H7.68623C7.00939 96.7242 6.37824 96.1159 6.37374 95.4388V43.1733C6.36724 42.5828 6.82532 42.0207 7.40498 41.9077C7.45178 41.9047 7.4988 41.9047 7.5456 41.9077C7.5924 41.9047 7.63943 41.9047 7.68623 41.9077H68.7177L72.2333 37.5484ZM66.6564 44.439H8.95342V94.1727H91.5936V45.5642L85.4999 55.7829C85.4687 55.8983 85.4214 56.0087 85.3593 56.111L85.3124 56.1578C85.2972 56.1738 85.2816 56.1894 85.2656 56.2046L83.5781 59.064L83.5312 59.1105C82.3404 61.0938 79.6772 61.6981 77.7656 60.376L75.8438 59.0635C75.2692 60.9565 75.2708 62.6257 75.1875 64.501C75.0839 66.835 74.76 69.4418 72.7501 72.3291C71.0324 74.7963 68.3031 75.655 65.6251 76.2196C62.9472 76.7842 60.2237 77.1325 57.9845 78.1884C57.781 78.2875 57.5548 78.3308 57.329 78.3136C57.1033 78.2964 56.8862 78.2194 56.7001 78.0906C56.5139 77.9617 56.3655 77.7857 56.2699 77.5804C56.1743 77.3752 56.1351 77.1482 56.1563 76.9228C56.3648 74.465 55.7194 71.7933 55.3126 69.0947C54.9057 66.3961 54.7668 63.5464 56.4844 61.0792C58.4934 58.1936 60.8496 56.9349 63.0001 56.0168C64.7224 55.2816 66.2702 54.7253 67.8282 53.5325L65.9065 52.22C65.7947 52.1275 65.6996 52.0165 65.6252 51.8919C65.1026 51.1565 64.5731 50.3785 64.3596 49.4076C64.1488 48.4492 64.375 47.2686 65.1096 46.3608V46.314L66.6564 44.439ZM82.6395 55.6889L68.6709 46.0328L67.077 47.9547C66.7681 48.3268 66.759 48.4648 66.8427 48.8453C66.9186 49.1904 67.2166 49.7444 67.5927 50.2984L70.5458 52.3141L70.6396 52.3609L71.9052 53.2515L74.6709 55.1733L75.6552 55.8296L75.9365 56.0639L79.2177 58.3139C80.0266 58.8734 80.8314 58.6571 81.327 57.7982C81.3426 57.7979 81.3582 57.7979 81.3739 57.7982L82.6395 55.6889ZM70.4521 55.3609L69.9365 54.9859C67.8684 56.7167 65.7731 57.6437 63.9833 58.4078C61.9361 59.2819 60.2328 60.1097 58.5459 62.5328C57.3984 64.181 57.4619 66.1941 57.8428 68.7202C58.1445 70.7221 58.5146 72.9848 58.5928 75.3295C60.8274 74.5784 63.116 74.1559 65.1084 73.7357C67.6168 73.207 69.539 72.5247 70.6865 70.8765C72.3722 68.455 72.5567 66.5823 72.6553 64.3608C72.7417 62.4134 72.8703 60.16 73.7803 57.6109L73.2178 57.2359L70.4521 55.3609ZM59.6244 103.688H41.1085L39.1403 110.485H61.64L59.6244 103.688ZM65.3435 113.063H35.4368C35.1348 113.063 34.9212 113.276 34.9212 113.578V116.906C34.9212 117.208 35.1348 117.422 35.4368 117.422H65.3435C65.6455 117.422 65.8123 117.208 65.8123 116.906V113.578C65.8123 113.276 65.6455 113.063 65.3435 113.063Z" fill="#F4F4F4"/>
<!-- <path d="M71.5547 40L67.0547 44.5229H10.0547V94.4771H92.0547V45.5321L95.0547 44.5229V98.5H6.55469V40H71.5547Z" fill="#F4F4F4" stroke="#F4F4F4"/> -->
</svg>
